<svg width="70" height="72" viewBox="0 0 70 72" fill="none" xmlns="http://www.w3.org/2000/svg">
<path d="M31.6832 71.9291C31.6613 71.8927 31.2501 71.8535 30.7695 71.8419C30.2888 71.8301 29.4378 71.742 28.8786 71.6461C23.9775 70.8054 19.0237 68.9756 15.7232 66.7867C15.1134 66.3822 14.9739 66.226 15.0742 66.0592C15.1471 65.9378 15.3895 65.9995 16.8019 66.4986C17.4778 66.7375 18.5265 67.0434 19.1325 67.1786C20.1576 67.4072 20.3668 67.4243 22.141 67.4244C24.803 67.4244 25.7148 67.2693 28.6146 66.3228C34.1378 64.5199 35.5197 64.512 41.0064 66.251C44.1576 67.2498 45.397 67.4705 47.8501 67.4697C49.6349 67.4692 51.3123 67.1454 53.3286 66.4119C53.8646 66.217 54.4036 66.038 54.5261 66.0144C54.7659 65.9682 54.8823 66.0724 54.8095 66.2679C54.6981 66.5664 51.8801 68.1862 50.1506 68.9458C46.7776 70.427 41.5469 71.7987 39.1326 71.835C38.6425 71.8424 38.22 71.884 38.1939 71.9276C38.1363 72.0231 31.7404 72.0246 31.6832 71.9291ZM19.0476 64.888C14.6566 64.2208 10.8498 62.1762 7.60428 58.742C5.83634 56.8713 4.53045 54.9323 3.21379 52.2226C1.49102 48.6773 0.263523 44.1047 0.0530923 40.4473C-0.0187746 39.1992 -0.0172491 32.2625 0.0550415 31.0764C0.202419 28.6595 1.06075 25.1107 2.24181 22.0346C2.69496 20.8542 3.8967 18.2812 4.47189 17.2599C4.64732 16.9483 4.83478 16.6148 4.88851 16.5189C6.04677 14.4482 8.27219 11.5445 10.2384 9.53848C12.0205 7.72019 13.7282 6.29991 15.7847 4.92576C16.414 4.50533 17.0242 4.09441 17.1407 4.01255C17.5715 3.71007 20.1805 2.35021 21.1339 1.93118C23.247 1.00238 25.6618 0.188202 26.3814 0.16205C26.6165 0.15342 26.8285 0.113496 26.8527 0.0732234C26.8769 0.0329505 27.0961 0 27.3398 0C27.7146 0 27.7847 0.025541 27.7951 0.165886C27.8049 0.301349 27.6717 0.374921 27.0715 0.565999C24.5577 1.36597 21.6716 2.78031 18.8883 4.57646C16.7971 5.92586 14.3458 8.03653 12.3186 10.2331C7.12537 15.8604 4.10348 22.6284 3.18396 30.6926C3.00472 32.2648 2.98107 36.437 3.1432 37.9192C4.13764 47.0167 7.95836 54.2273 13.6237 57.6987C15.7386 58.9947 18.0618 59.6801 20.6579 59.7743C22.7619 59.8504 24.1075 59.5661 27.9132 58.2415C31.4918 56.9959 32.4608 56.7325 34.0282 56.5798C35.0745 56.4778 36.3129 56.5702 37.5268 56.8407C38.2502 57.002 41.2642 57.9694 42.9043 58.5669C45.4279 59.4862 47.2978 59.8437 49.2181 59.7743C52.3646 59.6602 55.1184 58.6742 57.6221 56.7648C62.5318 53.0205 65.8469 46.161 66.7302 37.9194C66.874 36.5776 66.8753 32.5013 66.7322 31.1201C66.1016 25.0266 64.3553 19.8584 61.3276 15.1244C58.3561 10.4784 54.1453 6.39249 49.4723 3.6209C47.558 2.48559 44.6571 1.15702 42.7984 0.564692C42.2102 0.377275 42.0568 0.294463 42.0568 0.16423C42.0568 0.0257154 42.1221 0.000174341 42.4755 0.000174341C42.7058 0.000174341 42.9136 0.0326018 42.9375 0.0722645C42.9613 0.11184 43.1973 0.153333 43.4619 0.164317C44.6493 0.213743 48.4343 1.66235 51.0119 3.05385C59.2486 7.50052 65.2691 14.7658 68.3044 23.9218C69.0949 26.3065 69.7468 29.3827 69.7746 30.8585C69.7833 31.3156 69.833 31.743 69.8858 31.8123C69.9606 31.9107 69.9566 31.9227 69.8671 31.8673C69.7743 31.8098 69.7709 31.8315 69.849 31.9816C69.9667 32.2077 69.9215 38.6119 69.7872 40.7523C69.6866 42.3577 69.4133 43.962 68.8815 46.0697C67.1028 53.1197 63.4154 58.735 58.4132 62.0119C56.6313 63.1793 54.0085 64.2715 51.9654 64.6971C51.1104 64.8752 50.7558 64.8987 48.9214 64.8987C46.1549 64.8987 44.8126 64.6638 41.0397 63.5191C37.0735 62.3158 36.5564 62.2044 34.9378 62.2044C33.3191 62.2044 32.8007 62.3162 28.8359 63.5192C25.1968 64.6235 23.9233 64.856 21.2933 64.8962C20.198 64.9129 19.1873 64.9093 19.0476 64.888ZM19.3443 56.8393C17.6482 56.6488 16.2746 56.2278 14.6407 55.3981C12.4308 54.2758 10.5694 52.5171 8.96543 50.036C8.20693 48.8627 7.54064 47.6095 7.59632 47.4605C7.68784 47.2151 8.00981 47.3359 8.4944 47.7973C9.55359 48.8058 11.9815 50.6463 12.2529 50.6463C12.3004 50.6463 12.3994 50.7021 12.4729 50.7699C12.6539 50.9369 14.0692 51.5711 14.8526 51.8361C16.4241 52.3676 18.4527 52.6123 20.1494 52.4748C22.1407 52.3136 23.5591 51.9685 25.7852 51.1038C29.2934 49.7411 31.1663 49.2657 33.7783 49.0754C35.7227 48.9335 38.0034 49.1597 40.0653 49.6991C41.0619 49.9598 42.1683 50.3328 43.8366 50.9705C45.6438 51.6615 46.6494 51.9725 47.8287 52.2055C51.7822 52.9866 55.4165 52.2676 58.6676 50.0608C59.6528 49.3922 61.0703 48.2414 61.5875 47.6907C61.9331 47.3225 62.2754 47.222 62.3652 47.4626C62.4523 47.6963 61.1865 49.8931 60.2041 51.2128C59.6634 51.9394 58.4858 53.1869 57.7778 53.7832C56.0667 55.2243 53.8665 56.2667 51.5911 56.7142C50.539 56.9212 48.0153 56.9231 46.8452 56.7178C45.5475 56.4903 44.1885 56.0924 42.6501 55.4903C39.2359 54.1538 37.5129 53.7658 34.9804 53.7634C33.891 53.7624 33.2854 53.8073 32.4972 53.9471C30.6171 54.2809 29.8742 54.5085 26.6588 55.7374C25.4873 56.1851 24.3302 56.5039 23.1567 56.7022C22.1846 56.8667 20.2162 56.9375 19.3443 56.8393Z" fill="white"/>
<path d="M29.0489 42.6095L20.3199 21.1473C19.7002 19.6699 19.0806 18.646 18.4609 18.0757C17.8413 17.5055 17.1273 17.1685 16.3191 17.0648V16.2872C16.4269 16.2872 16.6963 16.2743 17.1273 16.2484C17.5315 16.2224 17.8278 16.2095 18.0164 16.2095C18.9594 16.2095 19.9292 16.3132 20.9261 16.5205C21.9229 16.702 22.8659 17.1426 23.7549 17.8425C24.644 18.5423 25.3984 19.6439 26.018 21.1473L31.4737 34.5612L35.1108 24.6077L33.6963 21.1473C33.0767 19.6699 32.4031 18.646 31.6757 18.0757C30.9752 17.5055 30.2209 17.1685 29.4126 17.0648V16.2872C29.5204 16.2872 29.7629 16.2743 30.1401 16.2484C30.5172 16.2224 30.8001 16.2095 30.9887 16.2095C31.9317 16.2095 32.9016 16.3132 33.8984 16.5205C34.8952 16.7279 35.8382 17.1815 36.7273 17.8813C37.6163 18.5553 38.3707 19.6439 38.9903 21.1473L44.7693 35.2999L51.6798 16.5983H53.6196L44.0419 42.6095H42.4254L36.2019 27.3682L30.6654 42.6095H29.0489Z" fill="white"/>
</svg>
